<?xml version="1.0" encoding="UTF-8"?>
<svg id="Layer_2" xmlns="http://www.w3.org/2000/svg" viewBox="0 0 105.8 68.2">
  <defs>
    <style>
      .cls-1 {
        fill: #fff;
      }
    </style>
  </defs>
  <g id="Capa_1">
    <g>
      <g>
        <path class="cls-1" d="M8.2,63.3h3.1v.6h-2.4v1.6h2.2v.6h-2.2v2.1h-.7v-4.9h0Z"/>
        <path class="cls-1" d="M17.8,65.5c-.2.2-.4.4-.7.5l1.1,2.1h-.8l-1-2h-1.2v2h-.7v-4.9h2c.4,0,.8.1,1,.4.3.2.4.6.4,1,.1.4.1.7-.1.9ZM15.2,63.8v1.7h1.2c.3,0,.5-.1.6-.2.2-.2.2-.4.2-.6,0-.3-.1-.5-.2-.6-.2-.1-.4-.2-.6-.2h-1.2v-.1Z"/>
        <path class="cls-1" d="M22.6,68.1c-.3-.1-.5-.2-.7-.4-.2-.2-.4-.5-.5-.8s-.2-.7-.2-1.1.1-.8.2-1.2c.1-.3.3-.6.5-.8.2-.2.4-.3.7-.4s.5-.1.9-.1c.3,0,.6,0,.9.1.3.1.5.2.7.4.2.2.4.5.5.8s.2.7.2,1.2c0,.4-.1.8-.2,1.1-.1.3-.3.6-.5.8-.2.2-.4.3-.7.4s-.5.1-.9.1-.7,0-.9-.1ZM24.5,64.2c-.3-.3-.7-.5-1.1-.5-.5,0-.8.2-1.1.5s-.4.8-.4,1.5.1,1.2.4,1.5c.3.3.7.5,1.1.5s.8-.2,1.1-.5.4-.8.4-1.5c.1-.7-.1-1.2-.4-1.5Z"/>
        <path class="cls-1" d="M29.9,63.3l2.3,3.8v-3.8h.6v4.9h-.8l-2.3-3.8v3.8h-.6v-4.9h.8Z"/>
        <path class="cls-1" d="M39.5,63.9h-1.4v4.3h-.7v-4.3h-1.4v-.6h3.5v.6Z"/>
        <path class="cls-1" d="M42.7,68.2v-4.9h3.1v.6h-2.5v1.5h2.2v.6h-2.2v1.6h2.5v.6s-3.1,0-3.1,0Z"/>
        <path class="cls-1" d="M49.3,68.2v-4.9h.7v4.9h-.7Z"/>
        <path class="cls-1" d="M56.8,65.5c-.2.2-.4.4-.7.5l1.1,2.1h-.8l-1-2h-1.2v2h-.7v-4.9h2c.4,0,.8.1,1,.4.3.2.4.6.4,1,.2.4.1.7-.1.9ZM54.3,63.8v1.7h1.2c.3,0,.5-.1.6-.2.2-.2.2-.4.2-.6,0-.3-.1-.5-.2-.6-.2-.1-.4-.2-.6-.2h-1.2v-.1Z"/>
        <path class="cls-1" d="M63.5,67.1h-2.2l-.4,1h-.7l1.8-4.9h.8l1.7,4.9h-.6l-.4-1ZM61.5,66.6h1.9l-.9-2.6-1,2.6Z"/>
        <path class="cls-1" d="M74.5,64c-.2-.1-.4-.2-.6-.2-.1,0-.3,0-.4.1s-.2.1-.3.2l-.2.2q-.1.1-.1.2v.1l-.6-.2v-.1c0-.1.1-.1.1-.3.1-.1.2-.3.3-.4.1-.1.3-.2.5-.3.2-.1.4-.1.7-.1.5,0,.8.1,1.1.4.3.2.4.6.4,1,0,.3-.1.5-.2.7s-.3.5-.6.8l-1.4,1.4h2.3v.6h-3.1v-.5l1.8-1.9c.2-.2.4-.4.5-.6s.1-.4.1-.6c0-.1-.1-.3-.3-.5Z"/>
        <path class="cls-1" d="M79.2,67.6c-.3-.4-.5-1-.5-1.9s.2-1.5.5-1.9.7-.6,1.2-.6.9.2,1.2.6c.3.4.5,1,.5,1.9s-.2,1.5-.5,1.9-.7.6-1.2.6c-.4,0-.9-.2-1.2-.6ZM80.5,63.8c-.3,0-.5.1-.7.4s-.3.8-.3,1.5c0,1.3.3,1.9,1,1.9s1-.6,1-1.9-.4-1.9-1-1.9Z"/>
        <path class="cls-1" d="M88.1,63.5c.3.2.4.5.4,1,0,.2,0,.3-.1.4,0,.1-.1.2-.2.3l-.2.2q-.1.1-.2.1h-.1.1s.1,0,.2.1.2.1.3.2c.1.1.1.2.2.3.1.2.1.3.1.5,0,.4-.2.8-.5,1.1-.3.3-.7.4-1.1.4-.3,0-.5,0-.7-.1s-.4-.2-.5-.3c-.1-.1-.2-.2-.3-.3-.1-.1-.1-.2-.1-.3v-.1l.6-.2v.1s0,.1.1.2c0,.1.1.2.2.2.1.1.2.1.3.2.1.1.3.1.4.1.3,0,.5-.1.7-.2.2-.2.3-.4.3-.7s-.1-.5-.2-.6c-.2-.1-.4-.2-.6-.2h-.7v-.5h.5c.3,0,.5-.1.6-.2.2-.1.2-.3.2-.6s-.1-.5-.2-.6-.3-.2-.6-.2c-.1,0-.3,0-.4.1-.1,0-.2.1-.3.2l-.2.2c0,.1-.1.1-.1.2v.1l-.6-.2v-.1s.1-.1.1-.3c.1-.1.2-.2.3-.3.1-.1.2-.2.4-.3.2-.1.4-.1.7-.1.6-.1.9,0,1.2.2Z"/>
        <path class="cls-1" d="M92.3,67.6c-.3-.4-.5-1-.5-1.9s.2-1.5.5-1.9.7-.6,1.2-.6.9.2,1.2.6c.3.4.5,1,.5,1.9s-.2,1.5-.5,1.9-.7.6-1.2.6c-.4,0-.8-.2-1.2-.6ZM93.6,63.8c-.3,0-.5.1-.7.4s-.3.8-.3,1.5c0,1.3.3,1.9,1,1.9s1-.6,1-1.9-.4-1.9-1-1.9Z"/>
      </g>
      <g>
        <path class="cls-1" d="M5.1,20.1h-2.6V0h2.5v8.1c.2-.2.4-.4.6-.6.3-.2.8-.6,1.7-.9.8-.4,1.7-.6,2.5-.6,1.3,0,2.3.4,3,1.1.7.7,1.1,1.9,1.1,3.5v9.5h-2.6v-9.1c0-1.8-.8-2.7-2.4-2.7-.6,0-1.3.2-2,.5-.7.4-1.2.7-1.6,1l-.5.5v9.8h.3Z"/>
        <path class="cls-1" d="M26.5,6.1h2.6v14h-2.5v-1.9q-.1.1-.2.2c-.1.1-.3.3-.7.5-.3.2-.7.5-1,.6s-.8.4-1.3.5c-.5.2-1.1.2-1.6.2-1.3,0-2.3-.4-3-1.1-.8-.7-1.1-1.9-1.1-3.5V6.1h2.6v9.1c0,1.8.8,2.7,2.3,2.7.6,0,1.3-.2,2-.5.7-.4,1.2-.7,1.5-1l.5-.5V6.1h-.1Z"/>
        <path class="cls-1" d="M34.6,14c.1,1.4.6,2.4,1.4,3,.8.6,1.8.9,3,.9.7,0,1.5-.1,2.3-.3.8-.2,1.3-.4,1.7-.6l.6-.3.7,2.1c-.2.1-.4.2-.7.4-.3.2-.9.4-1.9.7-1,.3-1.9.4-2.8.4-2,0-3.7-.6-5-1.8-1.3-1.2-2-3-2-5.4s.6-4.2,1.9-5.4,2.7-1.8,4.5-1.8,3.3.6,4.4,1.7,1.8,2.9,1.8,5.4v1s-9.9,0-9.9,0ZM41.9,12.1c0-1.4-.4-2.4-1.1-3.1-.7-.7-1.5-1-2.5-1s-1.8.3-2.5,1-1.1,1.7-1.2,3.2h7.3v-.1Z"/>
        <path class="cls-1" d="M47.5,20.1V0h2.6v20.1h-2.6Z"/>
        <path class="cls-1" d="M53.7,20.1V0h2.6v20.1h-2.6Z"/>
        <path class="cls-1" d="M59.7,7.3c.2-.1.5-.2.8-.4.4-.2,1-.4,2.1-.6,1-.3,2-.4,3-.4,3.5,0,5.3,1.6,5.3,4.7v5.6c0,.6.2,1,.5,1.4s.7.6,1.2.6l-.2,2.1c-1,0-1.8-.2-2.4-.5s-1-.8-1.2-1.6c-.2.2-.4.4-.7.6-.3.2-.9.5-1.8.9s-1.8.6-2.7.6c-1.3,0-2.3-.3-3.1-1-.8-.7-1.2-1.6-1.2-2.9,0-1.5.6-2.6,1.8-3.3,1.2-.7,2.9-1.1,4.9-1.1h2.5v-1.1c0-1-.2-1.7-.7-2.1s-1.2-.6-2.2-.6c-.8,0-1.7.1-2.5.3s-1.5.4-1.9.6l-.6.3-.9-2.1ZM65.9,13.8c-2.8,0-4.2.8-4.2,2.4,0,.6.2,1.1.6,1.4s1,.5,1.6.5c.7,0,1.5-.2,2.2-.5s1.3-.7,1.7-1l.6-.5v-2.3h-2.5Z"/>
      </g>
      <path class="cls-1" d="M14.7,28.8H2.1v-5h21.5l-14.7,26h15v5H0l14.7-26Z"/>
      <path class="cls-1" d="M49.7,23.8v5h-14.7v8.1h11.5v5h-11.5v8.1h14.7v5h-20v-31h20v-.2Z"/>
      <path class="cls-1" d="M103.5,48.4c-4.5,2.6-8.4,3.6-11.8,3.6-8.8,0-14.8-6.6-20.5-10.9,7.7-4.4,5.7-17.2-5.9-17.2h-9.8v31h5.3v-12.4h2.7c5.8,1,14.1,14.5,28.2,14.5,4.2,0,8.8-1.2,14.1-4.2l-2.3-4.4ZM65.4,37.5h-4.5v-8.6h4.5c6.6-.1,6.7,8.6,0,8.6Z"/>
      <path class="cls-1" d="M93.1,23.1c-5.7,0-11.3,3.8-11.3,11.4s5.6,11.4,11.3,11.4,11.2-3.8,11.2-11.4c0-7.6-5.6-11.4-11.2-11.4ZM88,26.9c1.6-.9,3.4-1.4,5.3-1.4s3.5.4,5.3,1.3c.2.1.3.4.2.6-.1.1-.2.2-.4.2q-.1,0-.2-.1c-1.7-.8-3.1-1.2-4.9-1.2s-3.4.4-4.9,1.2c-.2.1-.5,0-.6-.2-.1,0,0-.2.2-.4ZM91.7,42.9c-.1.1-.2.1-.3.1s-.2,0-.3-.1c-.8-.8-1.2-1.3-1.8-2.3-.6-1.1-.9-2.4-.9-3.8,0-2.6,2.3-4.8,5-4.8s5,2.1,5,4.7c0,.2-.2.5-.5.5-.2,0-.5-.2-.5-.5,0-2.1-1.8-3.8-4.1-3.8s-4.1,1.7-4.1,3.9c0,1.3.3,2.4.8,3.4.6,1,.9,1.4,1.6,2.1.2.2.2.4.1.6ZM98.8,41.3c-.6.1-1,.1-1.1.1-1.1,0-2-.3-2.7-.8-1.3-.9-2.1-2.3-2.1-3.9,0-.2.2-.5.5-.5s.5.2.5.5c0,1.2.6,2.4,1.7,3.1.6.4,1.4.6,2.2.6.2,0,.6,0,.9-.1.2,0,.5.1.5.4s-.2.5-.4.6ZM97.9,39.4c-1.5,0-2.7-1.2-2.7-2.6,0-.9-.8-1.7-1.8-1.7s-1.8.8-1.8,1.7c0,1.5.6,2.9,1.7,4,.8.8,1.6,1.3,2.9,1.6.2.1.4.3.3.5-.1.1-.3.2-.5.2h-.1c-1.4-.4-2.3-.9-3.3-1.8-1.2-1.2-1.9-2.9-1.9-4.6,0-1.4,1.2-2.6,2.7-2.6s2.7,1.1,2.7,2.6c0,.9.8,1.7,1.8,1.7s1.8-.8,1.8-1.7c0-3.3-2.9-6-6.4-6-2.5,0-4.8,1.4-5.8,3.6-.3.7-.5,1.5-.5,2.5,0,.7.1,1.8.6,3.2.1.2,0,.5-.2.6s-.5,0-.6-.2c-.4-1.1-.6-2.3-.6-3.5,0-1.1.2-2,.6-2.8,1.2-2.4,3.8-4,6.6-4,4,0,7.3,3.1,7.3,6.9-.1,1.2-1.3,2.4-2.8,2.4ZM101,32.3c-.2.2-.5.1-.6-.1-.8-1.1-1.8-2-3-2.6-2.5-1.3-5.8-1.3-8.3,0-1.2.6-2.2,1.5-3,2.6-.1.1-.2.2-.3.2s-.2,0-.2-.1c-.2-.1-.2-.4-.1-.6.9-1.2,2-2.2,3.3-2.9,2.8-1.4,6.3-1.4,9.1,0,1.3.7,2.4,1.6,3.3,2.9.1.2,0,.5-.2.6Z"/>
    </g>
  </g>
</svg>