<svg xmlns="http://www.w3.org/2000/svg" id="Capa_1" data-name="Capa 1" viewBox="0 0 498 505.76"><defs><style>.cls-1{fill:#191915;}.cls-2{fill:#97bf0d;}.cls-3{fill:#3e3d40;}</style></defs><title>Icono_Huella_Zero_formulario</title><path class="cls-1" d="M326.49,499.56l-21.48,5-.94-4,16.77-3.91-2.6-11.16L303,489l-.93-4,15.22-3.55-3.47-14.86,4.71-1.1Z" transform="translate(-7 -3.12)"></path><path class="cls-1" d="M252.72,493.12a9.82,9.82,0,0,1,4.74-3.68l-8.27-15.07,5.39-.19,7.68,14.29,8.44-.29-.5-14.54,4.88-.17,1.2,34.9-14.54.5a10.79,10.79,0,0,1-7.47-2.35,9.2,9.2,0,0,1-3.24-7.23A10,10,0,0,1,252.72,493.12Zm18.59,11.38-.42-12.24-8.82.31a6.43,6.43,0,0,0-4.56,1.8,6,6,0,0,0-1.6,4.66,5.75,5.75,0,0,0,1.84,4.39,6.45,6.45,0,0,0,4.56,1.4Z" transform="translate(-7 -3.12)"></path><path class="cls-1" d="M219.43,472a14.75,14.75,0,0,1,4.46,3.91,13.67,13.67,0,0,1,2.49,6.14,27.47,27.47,0,0,1-2.89,16.26,13.6,13.6,0,0,1-4.44,4.91,14.45,14.45,0,0,1-5.53,2.12,19.62,19.62,0,0,1-12.11-2.15,14.48,14.48,0,0,1-4.45-3.88,13.72,13.72,0,0,1-2.49-6.14,27.64,27.64,0,0,1,2.88-16.27A13.8,13.8,0,0,1,201.8,472a15,15,0,0,1,5.53-2.14,19.18,19.18,0,0,1,12.1,2.15ZM200.71,496.6a11.33,11.33,0,0,0,15.69,2.76c2.42-1.8,4-5.06,4.89-9.81s.44-8.42-1.21-10.94a10.61,10.61,0,0,0-7.37-4.64,10.23,10.23,0,0,0-8.3,1.86q-3.57,2.7-4.84,9.87T200.71,496.6Z" transform="translate(-7 -3.12)"></path><path class="cls-1" d="M157.15,490.81l-4.24-31.24-10.65,24.86L138,482.59l13.75-32.1,5.1,2.18,4.39,31.46,10.71-25,4.27,1.83-13.75,32.11Z" transform="translate(-7 -3.12)"></path><path class="cls-1" d="M94.69,449.88l8.18,6L121,431l4.09,3L107,458.85l8.19,6-2.44,3.34-20.46-15Z" transform="translate(-7 -3.12)"></path><path class="cls-1" d="M97.31,410.43,70.86,433.24l-14.65-17,3.13-2.7L70.89,427l8.25-7.11L68.87,407.93l3.13-2.7,10.27,11.91L91,409.6,79.36,396.1l3.2-2.76Z" transform="translate(-7 -3.12)"></path><path class="cls-1" d="M70,373.94,39.62,391.26l-2.51-4.41,30.32-17.32Z" transform="translate(-7 -3.12)"></path><path class="cls-1" d="M31.42,332.27a9.86,9.86,0,0,1,4.9,3.45l12-12.3,1.75,5.1L38.64,340l2.74,8,13.77-4.72,1.58,4.62-33,11.32L19,345.49a10.8,10.8,0,0,1,.07-7.84,9.2,9.2,0,0,1,6-5.2A9.83,9.83,0,0,1,31.42,332.27ZM26,353.37l11.58-4-2.86-8.35a6.46,6.46,0,0,0-3.05-3.84A6,6,0,0,0,26.7,337,5.74,5.74,0,0,0,23,340.08a6.4,6.4,0,0,0,0,4.76Z" transform="translate(-7 -3.12)"></path><path class="cls-1" d="M34,281.78l1.85,15.53,7.49,1.75.61,5.08L7.72,295.69l-.72-6L40.19,273.1l.63,5.26Zm-2.34,14.89L30,283.34l-17.75,8.88Z" transform="translate(-7 -3.12)"></path><path class="cls-1" d="M15.84,199.38a6.59,6.59,0,0,0-2.28,4.17,7.14,7.14,0,0,0,0,2.92,5.27,5.27,0,0,0,.95,2.15,10.85,10.85,0,0,0,1.3,1.38,5,5,0,0,0,1.19.81l.48.23-1.92,4.33a5.62,5.62,0,0,1-.84-.39A13.88,13.88,0,0,1,13,213.63a11.19,11.19,0,0,1-2.12-2.36,10.53,10.53,0,0,1-1.36-3.61,12.87,12.87,0,0,1,0-5,11.46,11.46,0,0,1,4-7.3,9.24,9.24,0,0,1,7.69-1.62,10.54,10.54,0,0,1,5,2.21,34.31,34.31,0,0,1,4.9,5.53l8.4,11.59L42.32,197l4,.71-4,22-3.78-.68L27.71,204.24a22.07,22.07,0,0,0-3.61-4.09,8.3,8.3,0,0,0-3.75-1.68A5.46,5.46,0,0,0,15.84,199.38Z" transform="translate(-7 -3.12)"></path><path class="cls-1" d="M49.76,172.3q-5.31,1.51-13.85-1.91t-11.32-8.18a10.58,10.58,0,0,1-.78-9.73A10.46,10.46,0,0,1,31.06,146q5.25-1.47,13.83,2t11.38,8.13a10.42,10.42,0,0,1,.79,9.7A10.56,10.56,0,0,1,49.76,172.3ZM27.56,154a6,6,0,0,0,1,6.08c1.49,2,4.52,4,9.12,5.83q12.93,5.19,15.68-1.65,2.64-6.58-10.3-11.77T27.56,154Z" transform="translate(-7 -3.12)"></path><path class="cls-1" d="M55.25,100.83q3.57-1.06,7.35,1.56a9,9,0,0,1,2.21,2.17A7.73,7.73,0,0,1,66,106.88a13.1,13.1,0,0,1,.38,2,6,6,0,0,1,0,1.5l-.1.56a3.87,3.87,0,0,1,.51-.41,8.93,8.93,0,0,1,1.46-.73,8.12,8.12,0,0,1,2.24-.64,8,8,0,0,1,2.83.25A9.78,9.78,0,0,1,76.58,111a9.32,9.32,0,0,1,4.34,7,12.35,12.35,0,0,1-2.45,8.27A15,15,0,0,1,74.82,130a9.26,9.26,0,0,1-3.67,1.65,14.83,14.83,0,0,1-3.12.2,6.8,6.8,0,0,1-2.24-.39L65,131.2l1.69-4.48.56.22a8,8,0,0,0,1.41.24,7.05,7.05,0,0,0,2.06-.09,7,7,0,0,0,2.25-1,7.88,7.88,0,0,0,2.26-2.21,7,7,0,0,0,1.4-4.89,6,6,0,0,0-2.8-4.2,5.84,5.84,0,0,0-4.74-1.16,6.58,6.58,0,0,0-3.92,2.85l-2.69,3.85-3.12-2.17,2.2-3.16a6.67,6.67,0,0,0,1.31-4.59,5.48,5.48,0,0,0-2.57-4,5.2,5.2,0,0,0-4.32-1.07,6.32,6.32,0,0,0-3.58,2.72,6.92,6.92,0,0,0-1.13,2.49,5,5,0,0,0-.06,2.22,8.67,8.67,0,0,0,.58,1.72,4,4,0,0,0,.68,1.11l.35.41-3.56,3.13a5.42,5.42,0,0,1-.57-.66,12.16,12.16,0,0,1-1-1.84,11,11,0,0,1-.93-2.9,10,10,0,0,1,.25-3.69,12.48,12.48,0,0,1,2-4.35A11.85,11.85,0,0,1,55.25,100.83Z" transform="translate(-7 -3.12)"></path><path class="cls-1" d="M98.68,95.22q-5.43-1-11.56-7.85T80.6,75A10.57,10.57,0,0,1,84.21,66a10.44,10.44,0,0,1,9.36-2.59q5.34,1,11.51,7.9t6.61,12.32a10.46,10.46,0,0,1-3.59,9.05A10.57,10.57,0,0,1,98.68,95.22ZM86.9,69a6,6,0,0,0-1.77,5.9q.65,3.74,5.59,9.27,9.3,10.38,14.79,5.46,5.28-4.73-4-15.11T86.9,69Z" transform="translate(-7 -3.12)"></path><path class="cls-1" d="M278.46,4.34l5.07.29-2,34.87-5.07-.28.88-15.66-16.69-.94-.88,15.66L254.75,38l2-34.88,5.06.28-.83,14.91,16.68.94Z" transform="translate(-7 -3.12)"></path><path class="cls-1" d="M319,11,313,32.5c-.77,2.77-.65,5.08.35,6.91s2.85,3.13,5.57,3.89q8.32,2.31,10.68-6.2l6-21.52,4.84,1.34-6,21.53q-1.65,6-6.1,8.39t-10.65.7q-6.15-1.71-8.71-6.08t-.91-10.33l6-21.53Z" transform="translate(-7 -3.12)"></path><path class="cls-1" d="M352.82,59.51l16.41-30.84L389,39.21l-1.94,3.65-15.63-8.31-5.12,9.61,13.89,7.39L378.3,55.2l-13.89-7.39L359,58l15.75,8.38-2,3.73Z" transform="translate(-7 -3.12)"></path><path class="cls-1" d="M391.45,83.05l22.67-26.58,3.82,3.26L398,83.09l12.61,10.76-2.74,3.21Z" transform="translate(-7 -3.12)"></path><path class="cls-1" d="M422.38,112.83l27.94-21,3,4-24.57,18.43,10,13.26-3.38,2.54Z" transform="translate(-7 -3.12)"></path><path class="cls-1" d="M461.16,165.07,455,150.72l-7.68.45-2-4.7,37.09-2.2,2.4,5.56-27.1,25.35-2.11-4.87Zm-2-14.93,5.32,12.32L479,148.9Z" transform="translate(-7 -3.12)"></path><path class="cls-1" d="M474.36,251.21l-4.17.26-1.56-25.16,4-.25L500.52,243l-1.16-18.65,4.13-.25L505,248.56l-4,.25-27.85-16.76Z" transform="translate(-7 -3.12)"></path><path class="cls-1" d="M469.57,274.55l34.74,3.68-2.37,22.32-4.11-.43,1.87-17.61-10.84-1.14L487.2,297l-4.1-.44,1.65-15.64-11.48-1.22-1.88,17.75-4.2-.45Z" transform="translate(-7 -3.12)"></path><path class="cls-1" d="M473.87,347a9.87,9.87,0,0,1-1.91-5.69l-17,2.82,1.61-5.15,16-2.52,2.52-8.07L461.27,324l1.45-4.66,33.34,10.41-4.34,13.89A10.84,10.84,0,0,1,487,350a9.24,9.24,0,0,1-7.9.65A9.92,9.92,0,0,1,473.87,347Zm16.89-13.78-11.69-3.65L476.44,338a6.47,6.47,0,0,0,.19,4.9,6,6,0,0,0,3.86,3.06,5.76,5.76,0,0,0,4.76-.29,6.4,6.4,0,0,0,2.83-3.84Z" transform="translate(-7 -3.12)"></path><path class="cls-1" d="M442.56,371a15,15,0,0,1,5.25-2.74,13.6,13.6,0,0,1,6.62-.1,24.47,24.47,0,0,1,7.71,3.18,24.93,24.93,0,0,1,6.43,5.37,13.74,13.74,0,0,1,3,5.92,14.57,14.57,0,0,1,0,5.92A19.65,19.65,0,0,1,465.15,399a14.59,14.59,0,0,1-5.23,2.75,13.72,13.72,0,0,1-6.62.11,27.58,27.58,0,0,1-14.14-8.56,13.74,13.74,0,0,1-3-5.92,14.8,14.8,0,0,1,0-5.93A19.24,19.24,0,0,1,442.56,371Zm16.15,26.33A11.32,11.32,0,0,0,467,383.66q-1.21-4.35-7.39-8.1t-10.64-2.82a10.59,10.59,0,0,0-7,5.21,10.18,10.18,0,0,0-1.25,8.4q1.23,4.32,7.45,8.08T458.71,397.3Z" transform="translate(-7 -3.12)"></path><path class="cls-2" d="M256.72,81.42c84.36,0,168.73,57.12,168.73,171.38S341.08,424.18,256.72,424.18c-85,0-169.39-57.13-169.39-171.38S171.7,81.42,256.72,81.42Z" transform="translate(-7 -3.12)"></path><path class="cls-3" d="M337.27,150.91a8.23,8.23,0,0,1-3.17-.91c-24.93-12.7-47.14-18.13-73.43-18.13a150.89,150.89,0,0,0-73.42,18.59,6.69,6.69,0,1,1-6.34-11.78,168.1,168.1,0,0,1,79.75-20.4c28.1,0,52.58,6.34,79.78,19.95a6.75,6.75,0,0,1,2.72,9.06,6.09,6.09,0,0,1-5.89,3.62Z" transform="translate(-7 -3.12)"></path><path class="cls-3" d="M148.25,220.72a5.07,5.07,0,0,1-3.62-1.37,6.65,6.65,0,0,1-1.81-9.06,135.94,135.94,0,0,1,49.4-43c41.7-21.31,94.73-21.76,136.43,0,19.94,10,36.26,24.48,49.4,43.06a6.2,6.2,0,0,1-1.81,9.07,6.13,6.13,0,0,1-9.06-1.81,120,120,0,0,0-44.88-39c-38.07-19.48-86.57-19.48-124.19,0-18.13,9.06-33.08,22.66-44.88,39a5.56,5.56,0,0,1-5,3.18Z" transform="translate(-7 -3.12)"></path><path class="cls-3" d="M230.75,380.28c-1.81,0-3.62-.45-4.53-1.81-11.33-11.34-17.68-19-26.74-34.91-9.06-16.31-14-36.26-14-57.56.44-39.44,34-71.63,75.23-71.63s74.79,32.19,74.79,71.17a6.81,6.81,0,0,1-13.61,0c.45-31.73-27.2-57.56-61.19-57.56S199,253.82,199,286c0,19,4.08,36.72,12.23,50.77,8.61,15.42,14.06,21.76,24.48,32.18a6.59,6.59,0,0,1,0,9.53,9.65,9.65,0,0,1-5,1.8Z" transform="translate(-7 -3.12)"></path><path class="cls-3" d="M325.94,355.8c-15.87,0-29.46-4.09-40.8-11.79a70.25,70.25,0,0,1-31.27-58,6.68,6.68,0,0,1,6.8-6.8,6.43,6.43,0,0,1,6.81,6.8c0,18.59,9.52,36.26,25.84,47.14,9.52,6.34,20.39,9.52,33.54,9.52a85,85,0,0,0,13.59-1.36,6.67,6.67,0,1,1,2.26,13.15c-8.62.89-15,1.36-16.77,1.36Z" transform="translate(-7 -3.12)"></path><path class="cls-3" d="M299.19,383a2.77,2.77,0,0,1-1.81-.44c-20.85-5.9-34.91-13.6-49.41-27.66A96.67,96.67,0,0,1,219.41,286c0-21.31,18.12-39,40.79-39S301,264.23,301,286c0,14.06,12.23,25.84,27.65,25.84S356.3,300.5,356.3,286c0-49.86-43.07-90.2-95.65-90.2-37.62,0-72.07,20.84-87.48,53.49a87.86,87.86,0,0,0-7.7,37.16,126.18,126.18,0,0,0,9.06,47.6,6.61,6.61,0,0,1-12.24,5,149.33,149.33,0,0,1-9.52-52.13c0-15.86,3.17-30.37,9.06-42.6,17.68-36.72,56.66-60.75,99.27-60.75,60.28,0,109.24,46.24,109.24,103.35,0,21.31-18.13,39-40.8,39s-40.79-17.68-40.79-39c0-14-12.23-25.84-27.65-25.84s-27.65,11.34-27.65,25.84a82.51,82.51,0,0,0,24.93,59.83c12.69,12.24,24.48,19.49,43.06,24.48,3.63.91,5.45,4.53,4.54,8.17C304.63,380.72,301.91,383,299.19,383Z" transform="translate(-7 -3.12)"></path></svg>